<svg xmlns="http://www.w3.org/2000/svg" version="1.1" xmlns:xlink="http://www.w3.org/1999/xlink" xmlns:svgjs="http://svgjs.dev/svgjs" width="100%" height="100%" viewBox="0 0 1000 600"><rect width="1000" height="600" x="0" y="0" fill="#FF660"/><g><circle r="166.66666666666666" cx="408.23595682779944" cy="430.45818536201614" fill="#f24f00" transform="matrix(0.5174498682540969,0,0,0.5174498682540969,0,77.25946777897985)"/><path d="M415.4013702870995 505.45818640001534L361.07687586091646 505.45818640001534L361.07687586091646 498.8609642413446L365.18041117492214 498.8609642413446Q369.03142123883515 498.8609642413446 369.9468252704211 495.79909558397117Q370.86222930200694 492.73722692659766 367.20061317566336 487.7182875810061L367.20061317566336 487.7182875810061L324.4922802537426 427.7435406839998L339.48596697799417 413.8546519289036L387.9076836832614 478.40641898383933Q392.20061293483656 484.3091967047552 396.43041087388855 488.9809138314694Q400.628643156679 493.6526309581836 405.2687946271316 496.2410147716333Q409.9405117538458 498.8609642413446 415.4013702870995 498.8609642413446L415.4013702870995 498.8609642413446L415.4013702870995 505.45818640001534ZM338.5705629464083 505.45818640001534L282.6677857071461 505.45818640001534L282.6677857071461 498.8609642413446Q291.06425027272695 498.8609642413446 294.7258663990705 497.85086324097404Q298.35591686915245 496.8091965843418 299.2713209007384 493.8735905520146Q300.15515927606265 490.9064188634259 300.15515927606265 485.22460073634113L300.15515927606265 485.22460073634113L300.15515927606265 375.9127331024817Q300.15515927606265 370.0099553815658 299.2713209007384 367.0427836929771Q298.35591686915245 364.10717766064994 294.7258663990705 363.06551100401776Q291.06425027272695 362.05541000364707 282.6677857071461 362.05541000364707L282.6677857071461 362.05541000364707L282.6677857071461 355.4581878449764L338.5705629464083 355.4581878449764L338.5705629464083 362.05541000364707Q330.39505797465847 362.05541000364707 326.6387448795302 363.06551100401776Q322.8824317844019 364.10717766064994 321.9985934090776 367.0427836929771Q321.0831893774917 370.0099553815658 321.0831893774917 375.9127331024817L321.0831893774917 375.9127331024817L321.0831893774917 485.22460073634113Q321.0831893774917 490.9064188634259 321.9985934090776 493.8735905520146Q322.8824317844019 496.8091965843418 326.6387448795302 497.85086324097404Q330.39505797465847 498.8609642413446 338.5705629464083 498.8609642413446L338.5705629464083 498.8609642413446L338.5705629464083 505.45818640001534ZM377.90137064833976 381.3735916357354L318.11601768890296 438.63369209424565L318.11601768890296 429.3218234970789L375.1551585535821 371.3672786008139Q378.8167746799257 367.7372281307319 378.8167746799257 364.8963190671895Q378.8167746799257 362.05541000364707 374.4922797720889 362.05541000364707L374.4922797720889 362.05541000364707L367.4531384257561 362.05541000364707L367.4531384257561 355.4581878449764L410.63495619160057 355.4581878449764L410.63495619160057 362.05541000364707Q404.9531380645158 362.05541000364707 400.2814209378016 363.8546524105573Q395.6097038110874 365.68546047372905 390.4960674967111 369.8836927565195Q385.38243118233476 374.08192503930997 377.90137064833976 381.3735916357354L377.90137064833976 381.3735916357354ZM487.4341978760302 505.45818640001534L427.9013701666861 505.45818640001534L427.9013701666861 498.8609642413446Q436.297834732267 498.8609642413446 439.92788520234893 497.85086324097404Q443.5895013286925 496.8091965843418 444.4733397040168 493.8735905520146Q445.38874373560265 490.9064188634259 445.38874373560265 485.22460073634113L445.38874373560265 485.22460073634113L445.38874373560265 375.69177350865067Q445.38874373560265 369.7889957877348 444.4733397040168 366.94808672419236Q443.5895013286925 364.10717766064994 439.92788520234893 363.06551100401776Q436.297834732267 362.05541000364707 427.9013701666861 362.05541000364707L427.9013701666861 362.05541000364707L427.9013701666861 355.4581878449764L533.8041469242946 355.4581878449764L533.8041469242946 391.12737942056435L527.9013692033789 391.12737942056435Q526.070561140207 380.01626841648743 523.0086924828336 373.9872280705252Q519.9468238254599 367.95818772456295 513.4758642918357 365.55919784868274Q506.97333910194965 363.1917736290641 494.25237962853197 363.1917736290641L494.25237962853197 363.1917736290641L474.7132384026126 363.1917736290641Q469.4733394631899 363.1917736290641 467.8950566501108 364.5490968483121Q466.3167738370317 365.90642006756013 466.3167738370317 371.3672786008139L466.3167738370317 371.3672786008139L466.3167738370317 426.3546518084902L493.33697559694616 426.3546518084902Q502.2069250064508 426.3546518084902 506.31046032045646 424.55540940158Q510.38242997820055 422.7246013384082 511.99227844754125 418.52636905561775Q513.5705612606203 414.32813677282735 514.7069248860373 407.28899542649447L514.7069248860373 407.28899542649447L519.9468238254599 407.28899542649447L519.9468238254599 454.32182325625206L514.7069248860373 454.32182325625206Q513.5705612606203 447.28268190991923 511.99227844754125 443.0844496271288Q510.38242997820055 438.8546516880768 506.31046032045646 437.05540928116653Q502.2069250064508 435.2246012179948 493.33697559694616 435.2246012179948L493.33697559694616 435.2246012179948L466.3167738370317 435.2246012179948L466.3167738370317 485.22460073634113Q466.3167738370317 490.9064188634259 467.45313746244864 493.8735905520146Q468.58950108786564 496.8091965843418 473.1349555895335 497.85086324097404Q477.6804100912013 498.8609642413446 487.4341978760302 498.8609642413446L487.4341978760302 498.8609642413446L487.4341978760302 505.45818640001534Z " fill="#F24F0" transform="matrix(0.5174498682540969,0,0,0.5174498682540969,0,77.25946777897985)"/><path d="M734.4091930653748 503.589703059313L658.2359611670357 503.589703059313L658.2359611670357 499.04885723308576Q664.0152194913251 499.04885723308576 666.5137710225027 498.4187877165279Q669.0340490887342 497.81044473502374 669.6423920702383 495.7681504399742Q670.2724615867961 493.7258561449246 670.2724615867961 489.66299408987913L670.2724615867961 489.66299408987913L670.2724615867961 414.27191745347403Q670.2724615867961 410.2090553984286 669.6423920702383 408.166761103379Q669.0340490887342 406.1244668083294 666.5137710225027 405.51612382682526Q664.0152194913251 404.8860543102674 658.2359611670357 404.8860543102674L658.2359611670357 404.8860543102674L658.2359611670357 400.34520848404014L730.9764005268872 400.34520848404014L730.9764005268872 425.3741768659245L726.7397261914119 425.3741768659245Q725.50131369335 417.70470999196164 723.4590193983004 413.4028560513253Q721.4384516383045 409.1010021106889 716.9627854172384 407.3846058414451Q712.508845731226 405.6682095722013 703.9051378499532 405.6682095722013L703.9051378499532 405.6682095722013L690.3043269063252 405.6682095722013Q686.6977220874077 405.6682095722013 685.6765749398829 406.6893567197261Q684.6771543274118 407.68877733219716 684.6771543274118 411.29538215111455L684.6771543274118 411.29538215111455L684.6771543274118 446.79654042889143L702.3408273260854 446.79654042889143Q708.4459836761805 446.79654042889143 711.1835270929491 445.55812793082947Q713.9210705097177 444.29798889771376 715.0073972624037 441.495265875784Q716.1154505501434 438.6708163188005 716.8976058120772 433.82579900182117L716.8976058120772 433.82579900182117L720.8083821217466 433.82579900182117L720.8083821217466 465.74207899573446L716.8976058120772 465.74207899573446Q716.1154505501434 460.8753351437014 715.0073972624037 458.0726121217716Q713.9210705097177 455.2481625647882 711.1835270929491 454.00975006672616Q708.4459836761805 452.74961103361045 702.3408273260854 452.74961103361045L702.3408273260854 452.74961103361045L684.6771543274118 452.74961103361045L684.6771543274118 486.23020155139153Q684.6771543274118 491.37939035912297 686.0024729656888 493.9648480305155Q687.3277916039656 496.55030570190803 691.390653659011 497.484546709218Q695.4535157140565 498.4187877165279 703.7530521045773 498.4187877165279L703.7530521045773 498.4187877165279Q713.1389152477839 498.4187877165279 718.7009082215359 496.7023914472841Q724.2411746602343 494.98599517804035 727.2177099625939 490.293063606437Q730.1942452649533 485.6001320348337 732.2148130249492 476.69225266280887L732.2148130249492 476.69225266280887L736.2994016150484 476.69225266280887L734.4091930653748 503.589703059313ZM779.6221125121641 503.589703059313L748.3359020348087 503.589703059313L748.3359020348087 499.04885723308576L752.72466211566 499.04885723308576Q757.7217651780153 499.04885723308576 758.8949980709161 497.24555482362706Q760.068230963817 495.4639789492221 760.068230963817 490.7710473776188L760.068230963817 490.7710473776188L760.068230963817 413.7939336822922Q760.068230963817 409.88315737262275 759.3729818420979 408.01467535800293Q758.6560061853253 406.1244668083294 756.1574546541475 405.51612382682526Q753.6589031229698 404.8860543102674 748.1838162894327 404.8860543102674L748.1838162894327 404.8860543102674L748.1838162894327 400.34520848404014L775.8634219478707 400.34520848404014L807.3017181706022 477.14850989893694L807.627616196408 477.14850989893694L839.2179981645155 400.34520848404014L865.5071055795155 400.34520848404014L865.5071055795155 404.8860543102674Q860.0320187459783 404.8860543102674 857.4465610745858 405.51612382682526Q854.8611034031932 406.1244668083294 854.1658542814743 408.01467535800293Q853.4488786247015 409.88315737262275 853.4488786247015 413.7939336822922L853.4488786247015 413.7939336822922L853.4488786247015 490.293063606437Q853.4488786247015 494.05175417073036 854.2310338866354 495.92023618535023Q855.0131891485693 497.81044473502374 857.5986468199618 498.4187877165279Q860.1841044913543 499.04885723308576 865.5071055795155 499.04885723308576L865.5071055795155 499.04885723308576L865.5071055795155 503.589703059313L827.1814977447551 503.589703059313L827.1814977447551 499.04885723308576Q832.9607560690444 499.04885723308576 835.4593076002221 498.3536081113668Q837.9795856664535 497.636632454594 838.6748347881725 495.7681504399742Q839.3700839098916 493.8996684253544 839.3700839098916 490.293063606437L839.3700839098916 490.293063606437L839.3700839098916 414.4240031988501L839.0659124191394 414.4240031988501L804.3469094032964 499.52684100426757L801.5224598463129 499.52684100426757L766.3254730592881 414.4240031988501L766.0213015685359 414.4240031988501L766.0213015685359 490.7710473776188Q766.0213015685359 495.92023618535023 767.107628321222 497.484546709218Q768.1939550739079 499.04885723308576 773.8428541878749 499.04885723308576L773.8428541878749 499.04885723308576L779.6221125121641 499.04885723308576L779.6221125121641 503.589703059313ZM921.3443006675735 503.589703059313L881.1502108181933 503.589703059313L881.1502108181933 499.04885723308576Q886.7773833971065 499.04885723308576 889.2759349282842 498.3536081113668Q891.7744864594619 497.636632454594 892.4914621162346 495.7681504399742Q893.1867112379535 493.8996684253544 893.1867112379535 490.293063606437L893.1867112379535 490.293063606437L893.1867112379535 413.7939336822922Q893.1867112379535 410.0352431179988 892.4914621162346 408.0798549631641Q891.7744864594619 406.1244668083294 889.2107553231231 405.51612382682526Q886.6252976517304 404.8860543102674 881.1502108181933 404.8860543102674L881.1502108181933 404.8860543102674L881.1502108181933 400.34520848404014L919.9320758890818 400.34520848404014Q929.7959228034703 400.34520848404014 936.9222263010901 402.5395885244657Q944.0268032636562 404.73396856489137 948.5676490898835 408.6447448745608Q953.1084949161108 412.5555211842302 955.3028749565364 417.94370187755254Q957.4755284619083 423.3318825708749 957.4755284619083 429.7629369467757L957.4755284619083 429.7629369467757Q957.4755284619083 436.4764362783749 955.1290626761066 442.2774211377179Q952.782596890305 448.05667946200714 948.0244857135405 452.4454395428584Q943.2446480017223 456.8124730886559 935.8141730133503 459.24584501467245Q928.3836980249785 461.65749040563526 918.2156796198379 461.65749040563526L918.2156796198379 461.65749040563526L907.5914039785694 461.65749040563526L907.5914039785694 490.293063606437Q907.5914039785694 494.05175417073036 908.3735592405031 495.92023618535023Q909.1557145024371 497.81044473502374 912.1105232697429 498.4187877165279Q915.0870585721024 499.04885723308576 921.3443006675735 499.04885723308576L921.3443006675735 499.04885723308576L921.3443006675735 503.589703059313ZM907.5914039785694 411.29538215111455L907.5914039785694 455.878232081346L917.281438612528 455.878232081346Q929.3179390322885 455.878232081346 935.5751811277595 449.7078961260898Q941.8324232232305 443.51583363577987 941.8324232232305 430.69717795408565L941.8324232232305 430.69717795408565Q941.8324232232305 418.18269376314345 935.7489934081892 411.9906312728335Q929.6438370580942 405.8202953175773 916.977267121776 405.8202953175773L916.977267121776 405.8202953175773Q910.7200250263049 405.8202953175773 909.1557145024371 407.23252009606904Q907.5914039785694 408.6447448745608 907.5914039785694 411.29538215111455L907.5914039785694 411.29538215111455ZM1009.5757595207266 503.589703059313L970.3159106786562 503.589703059313L970.3159106786562 499.04885723308576Q975.9430832575694 499.04885723308576 978.4416347887471 498.3536081113668Q980.9401863199249 497.636632454594 981.6571619766975 495.7681504399742Q982.3524110984166 493.8996684253544 982.3524110984166 490.293063606437L982.3524110984166 490.293063606437L982.3524110984166 413.7939336822922Q982.3524110984166 410.0352431179988 981.6571619766975 408.0798549631641Q980.9401863199249 406.1244668083294 978.376455183586 405.51612382682526Q975.7909975121935 404.8860543102674 970.3159106786562 404.8860543102674L970.3159106786562 404.8860543102674L970.3159106786562 400.34520848404014L1012.40020907771 400.34520848404014Q1022.5682274828506 400.34520848404014 1029.9117963310077 403.1696580410236Q1037.2553651791645 405.97238106295333 1041.253047629049 411.5995536418666Q1045.2507300789334 417.2484527558335 1045.2507300789334 425.8521606371063L1045.2507300789334 425.8521606371063Q1045.2507300789334 433.1957294852633 1042.4262805219496 438.5187305734245Q1039.6018309649662 443.84173166158564 1034.604727902611 447.12243845469726Q1029.6076248402555 450.4031452478088 1023.0244847189787 451.96745577167655L1023.0244847189787 451.96745577167655L1023.0244847189787 452.27162726242864Q1028.499571552516 453.8359377862964 1031.9540906260572 456.66038734327987Q1035.386883164545 459.48483690026336 1037.4291774595945 464.17776847186667Q1039.44974521959 468.87070004347 1040.55779850733 476.214268891627L1040.55779850733 476.214268891627L1041.49203951464 481.9935272159163Q1042.4262805219496 487.3165283040775 1043.9036849056029 491.16212500858575Q1045.4028158243095 494.98599517804035 1047.9882734957018 497.02828947308984Q1050.5520046320407 499.04885723308576 1054.6365932221397 499.04885723308576L1054.6365932221397 499.04885723308576L1054.6365932221397 503.589703059313L1034.300556411859 503.589703059313Q1032.2582621168094 501.5474087642635 1030.6939515929416 498.1146162257758Q1029.1296410690738 494.6818236872882 1028.0433143163878 489.206736853751L1028.0433143163878 489.206736853751L1024.1325380067183 469.95702679615596Q1022.7203132282266 462.1354741768171 1018.6574511731811 458.6157754981146Q1014.5728625830819 455.09607681941213 1006.2950527276149 455.09607681941213L1006.2950527276149 455.09607681941213L996.7571038390323 455.09607681941213L996.7571038390323 490.293063606437Q996.7571038390323 494.05175417073036 997.5392591009662 495.92023618535023Q998.3214143629001 497.81044473502374 1001.0589577796687 498.4187877165279Q1003.7965011964374 499.04885723308576 1009.5757595207266 499.04885723308576L1009.5757595207266 499.04885723308576L1009.5757595207266 503.589703059313ZM996.7571038390323 411.5995536418666L996.7571038390323 449.4689042404989L1006.447138472991 449.4689042404989Q1018.3315531473753 449.4689042404989 1024.0456318665033 444.2328092925526Q1029.7597105856316 438.9749878095526 1029.7597105856316 427.7206426517261L1029.7597105856316 427.7206426517261Q1029.7597105856316 416.2924852134699 1023.9587257262885 411.0563902655236Q1018.1794674019992 405.8202953175773 1006.2950527276149 405.8202953175773L1006.2950527276149 405.8202953175773Q1000.0378106321439 405.8202953175773 998.3865939680612 407.23252009606904Q996.7571038390323 408.6447448745608 996.7571038390323 411.5995536418666L996.7571038390323 411.5995536418666ZM1141.1299292709955 503.589703059313L1064.9566973726564 503.589703059313L1064.9566973726564 499.04885723308576Q1070.735955696946 499.04885723308576 1073.2345072281232 498.4187877165279Q1075.7547852943549 497.81044473502374 1076.3631282758588 495.7681504399742Q1076.9931977924166 493.7258561449246 1076.9931977924166 489.66299408987913L1076.9931977924166 489.66299408987913L1076.9931977924166 414.27191745347403Q1076.9931977924166 410.2090553984286 1076.3631282758588 408.166761103379Q1075.7547852943549 406.1244668083294 1073.2345072281232 405.51612382682526Q1070.735955696946 404.8860543102674 1064.9566973726564 404.8860543102674L1064.9566973726564 404.8860543102674L1064.9566973726564 400.34520848404014L1137.6971367325077 400.34520848404014L1137.6971367325077 425.3741768659245L1133.4604623970326 425.3741768659245Q1132.2220498989705 417.70470999196164 1130.179755603921 413.4028560513253Q1128.1591878439253 409.1010021106889 1123.6835216228592 407.3846058414451Q1119.2295819368464 405.6682095722013 1110.625874055574 405.6682095722013L1110.625874055574 405.6682095722013L1097.0250631119457 405.6682095722013Q1093.4184582930284 405.6682095722013 1092.3973111455034 406.6893567197261Q1091.3978905330328 407.68877733219716 1091.3978905330328 411.29538215111455L1091.3978905330328 411.29538215111455L1091.3978905330328 446.79654042889143L1109.0615635317063 446.79654042889143Q1115.1667198818013 446.79654042889143 1117.9042632985697 445.55812793082947Q1120.6418067153381 444.29798889771376 1121.7281334680242 441.495265875784Q1122.8361867557642 438.6708163188005 1123.618342017698 433.82579900182117L1123.618342017698 433.82579900182117L1127.5291183273675 433.82579900182117L1127.5291183273675 465.74207899573446L1123.618342017698 465.74207899573446Q1122.8361867557642 460.8753351437014 1121.7281334680242 458.0726121217716Q1120.6418067153381 455.2481625647882 1117.9042632985697 454.00975006672616Q1115.1667198818013 452.74961103361045 1109.0615635317063 452.74961103361045L1109.0615635317063 452.74961103361045L1091.3978905330328 452.74961103361045L1091.3978905330328 486.23020155139153Q1091.3978905330328 491.37939035912297 1092.7232091713095 493.9648480305155Q1094.0485278095862 496.55030570190803 1098.1113898646317 497.484546709218Q1102.1742519196773 498.4187877165279 1110.473788310198 498.4187877165279L1110.473788310198 498.4187877165279Q1119.8596514534047 498.4187877165279 1125.4216444271565 496.7023914472841Q1130.9619108658549 494.98599517804035 1133.9384461682143 490.293063606437Q1136.9149814705738 485.6001320348337 1138.93554923057 476.69225266280887L1138.93554923057 476.69225266280887L1143.0201378206689 476.69225266280887L1141.1299292709955 503.589703059313ZM1096.2429078500118 385.63634425267236L1092.0062335145367 385.63634425267236L1103.9123747239746 360.60737587078796Q1105.302872967413 357.95673859423425 1106.8671834912807 356.69659956111855Q1108.4314940151485 355.4581870630565 1110.473788310198 355.4581870630565L1110.473788310198 355.4581870630565Q1112.8202540959996 355.4581870630565 1114.5366503652435 357.17458333230036Q1116.253046634487 358.8909796015442 1116.253046634487 361.2374453873459L1116.253046634487 361.2374453873459Q1116.253046634487 362.8017559112136 1115.557797512768 364.1270745494905Q1114.8625483910491 365.4523931877673 1112.5160826052474 368.12475699937477L1112.5160826052474 368.12475699937477L1096.2429078500118 385.63634425267236ZM1188.2113307324048 505.45818507393284L1188.2113307324048 505.45818507393284Q1181.3457456554293 505.45818507393284 1176.956985574578 504.284952181032Q1172.568225493727 503.1117192881312 1170.004494357388 502.0253925354453Q1167.4190366859957 500.9390657827593 1165.5288281363219 500.9390657827593L1165.5288281363219 500.9390657827593Q1163.812431867078 500.9390657827593 1163.0302766051445 502.11229867566016Q1162.2481213432102 503.285531568561 1161.9439498524584 504.676029811999L1161.9439498524584 504.676029811999L1158.033173542789 504.676029811999L1156.1429649931156 473.5636316150733L1160.2275535832146 473.5636316150733Q1161.0097088451485 478.5607346774287 1163.117182745359 483.3405723892469Q1165.2246566455701 488.09868356601135 1168.7443553242724 491.8573741303048Q1172.2640540029747 495.61606469459815 1177.043891714793 497.8756243401849Q1181.8020028915575 500.1569105208254 1187.9071592416526 500.1569105208254L1187.9071592416526 500.1569105208254Q1194.7944708536816 500.1569105208254 1199.487402425285 497.4193671040568Q1204.1803339968883 494.6818236872882 1206.591979387851 489.9888921156849Q1209.0253513138673 485.2959605440816 1209.0253513138673 479.8208737105444L1209.0253513138673 479.8208737105444Q1209.0253513138673 472.15140683658154 1204.419325882479 467.37156912476337Q1199.7915739160371 462.61345794799894 1190.883694544012 458.70268163832947L1190.883694544012 458.70268163832947L1183.844297186607 455.72614633597Q1176.4790018033964 452.5975252882344 1170.4607515935163 448.75192858372617Q1164.4425013836362 444.9280584142716 1160.8358965647185 439.3008858353584Q1157.251018280855 433.6737132564451 1157.251018280855 425.3741768659245L1157.251018280855 425.3741768659245Q1157.251018280855 416.14039946809385 1161.5528722214913 410.2090553984286Q1165.854726162128 404.25598479370956 1173.0462092649086 401.36635563156494Q1180.2376923676898 398.47672646942027 1188.9934859943387 398.47672646942027L1188.9934859943387 398.47672646942027Q1195.4245403702394 398.47672646942027 1199.0963247943178 399.56305322210625Q1202.7681092183966 400.64937997479217 1204.9624892588222 401.75743326253183Q1207.1568692992478 402.8437600152178 1208.8732655684917 402.8437600152178L1208.8732655684917 402.8437600152178Q1210.2854903469834 402.8437600152178 1210.8938333284873 401.67052712231697Q1211.523902845045 400.4972942294161 1211.6759885904212 398.9329837055484L1211.6759885904212 398.9329837055484L1215.2825934093385 398.9329837055484L1216.8469039332062 426.6343158990402L1212.7840418781611 426.6343158990402Q1211.8498008708511 420.20326152313936 1209.0253513138673 415.0540727154079Q1206.200901756884 409.88315737262275 1201.4427905801194 406.8414424651021Q1196.6629528683015 403.77800102252775 1189.4714697655204 403.77800102252775L1189.4714697655204 403.77800102252775Q1181.4978314008054 403.77800102252775 1176.3269160580203 408.0798549631641Q1171.177727250289 412.3817089038005 1171.177727250289 421.46340055625507L1171.177727250289 421.46340055625507Q1171.177727250289 426.78640164441623 1173.3503807556608 430.3712799282799Q1175.5447607960864 433.9778847471972 1179.607622851132 436.6285220237509Q1183.692211441231 439.3008858353584 1189.1672982747682 441.64735162116L1189.1672982747682 441.64735162116L1196.5108671229254 444.7759726688956Q1203.3981787349544 447.5786956908253 1209.5033350850495 451.3373862551187Q1215.5867649000907 455.09607681941213 1219.432361604599 460.8753351437014Q1223.2562317740535 466.6763200030444 1223.2562317740535 475.7362851204452L1223.2562317740535 475.7362851204452Q1223.2562317740535 482.62359673247414 1220.8445863830907 488.18558970622627Q1218.411214457074 493.7258561449246 1213.8051890256856 497.5714528494329Q1209.1774370592434 501.3953230188874 1202.6812030781816 503.43761731393704Q1196.2066956321733 505.45818507393284 1188.2113307324048 505.45818507393284ZM1297.5609816577726 503.589703059313L1253.4561154987227 503.589703059313L1253.4561154987227 499.04885723308576Q1260.647598601504 499.04885723308576 1263.7762196492395 498.4187877165279Q1266.904840696975 497.81044473502374 1267.600089818694 495.85505658018906Q1268.3170654754667 493.8996684253544 1268.3170654754667 489.66299408987913L1268.3170654754667 489.66299408987913L1268.3170654754667 405.51612382682526L1259.86544333957 405.51612382682526Q1251.4138212036733 405.51612382682526 1247.111967263037 407.23252009606904Q1242.8101133224004 408.94891636531287 1240.854725167566 413.25077030594923Q1238.8993370127314 417.5526242465856 1237.6609245146692 425.6783483566765L1237.6609245146692 425.6783483566765L1233.5763359245702 425.6783483566765L1233.5763359245702 400.34520848404014L1317.4407612319255 400.34520848404014L1317.4407612319255 425.6783483566765L1313.356172641826 425.6783483566765Q1312.1177601437644 417.5526242465856 1310.1623719889294 413.25077030594923Q1308.206983834095 408.94891636531287 1303.9703094986198 407.23252009606904Q1299.7553616981982 405.51612382682526 1291.3037395623014 405.51612382682526L1291.3037395623014 405.51612382682526L1282.7000316810286 405.51612382682526L1282.7000316810286 489.66299408987913Q1282.7000316810286 493.8996684253544 1283.4821869429625 495.85505658018906Q1284.2643422048964 497.81044473502374 1287.479869392847 498.4187877165279Q1290.6736700457436 499.04885723308576 1297.5609816577726 499.04885723308576L1297.5609816577726 499.04885723308576L1297.5609816577726 503.589703059313ZM1366.8686284791365 503.589703059313L1328.390934899 503.589703059313L1328.390934899 499.04885723308576Q1334.170193223289 499.04885723308576 1336.6687447544668 498.3536081113668Q1339.1672962856446 497.636632454594 1339.7973658022024 495.61606469459815Q1340.4274353187602 493.57377039954855 1340.4274353187602 489.66299408987913L1340.4274353187602 489.66299408987913L1340.4274353187602 414.4240031988501Q1340.4274353187602 410.3611411438046 1339.7973658022024 408.318846848755Q1339.1672962856446 406.29827908875916 1336.6687447544668 405.58130343198644Q1334.170193223289 404.8860543102674 1328.390934899 404.8860543102674L1328.390934899 404.8860543102674L1328.390934899 400.34520848404014L1366.8686284791365 400.34520848404014L1366.8686284791365 404.8860543102674Q1361.2414559002232 404.8860543102674 1358.6559982288304 405.58130343198644Q1356.070540557438 406.29827908875916 1355.4404710408799 408.318846848755Q1354.8104015243225 410.3611411438046 1354.8104015243225 414.4240031988501L1354.8104015243225 414.4240031988501L1354.8104015243225 489.66299408987913Q1354.8104015243225 493.57377039954855 1355.4404710408799 495.61606469459815Q1356.070540557438 497.636632454594 1358.6559982288304 498.3536081113668Q1361.2414559002232 499.04885723308576 1366.8686284791365 499.04885723308576L1366.8686284791365 499.04885723308576L1366.8686284791365 503.589703059313ZM1411.907735645496 503.589703059313L1380.6215251681406 503.589703059313L1380.6215251681406 499.04885723308576L1385.0102852489917 499.04885723308576Q1390.0073883113469 499.04885723308576 1391.180621204248 497.24555482362706Q1392.3538540971485 495.4639789492221 1392.3538540971485 490.7710473776188L1392.3538540971485 490.7710473776188L1392.3538540971485 413.7939336822922Q1392.3538540971485 409.88315737262275 1391.6586049754296 408.01467535800293Q1390.9633558537107 406.1244668083294 1388.443077787479 405.51612382682526Q1385.9445262563017 404.8860543102674 1380.4694394227645 404.8860543102674L1380.4694394227645 404.8860543102674L1380.4694394227645 400.34520848404014L1408.1707716162564 400.34520848404014L1439.6090678389878 477.14850989893694L1439.9132393297396 477.14850989893694L1471.525347832901 400.34520848404014L1497.7927287128473 400.34520848404014L1497.7927287128473 404.8860543102674Q1492.31764187931 404.8860543102674 1489.7321842079173 405.51612382682526Q1487.1684530715784 406.1244668083294 1486.451477414806 408.01467535800293Q1485.7562282930871 409.88315737262275 1485.7562282930871 413.7939336822922L1485.7562282930871 413.7939336822922L1485.7562282930871 490.293063606437Q1485.7562282930871 494.05175417073036 1486.538383555021 495.92023618535023Q1487.320538816955 497.81044473502374 1489.9059964883472 498.4187877165279Q1492.4697276246861 499.04885723308576 1497.7927287128473 499.04885723308576L1497.7927287128473 499.04885723308576L1497.7927287128473 503.589703059313L1459.467120878087 503.589703059313L1459.467120878087 499.04885723308576Q1465.2681057374298 499.04885723308576 1467.7666572686076 498.3536081113668Q1470.2652087997853 497.636632454594 1470.9604579215043 495.7681504399742Q1471.677433578277 493.8996684253544 1471.677433578277 490.293063606437L1471.677433578277 490.293063606437L1471.677433578277 414.4240031988501L1471.351535552471 414.4240031988501L1436.6325325366283 499.52684100426757L1433.8080829796445 499.52684100426757L1398.6110961926197 414.4240031988501L1398.306924701868 414.4240031988501L1398.306924701868 490.7710473776188Q1398.306924701868 495.92023618535023 1399.3932514545536 497.484546709218Q1400.5013047422935 499.04885723308576 1406.1284773212064 499.04885723308576L1406.1284773212064 499.04885723308576L1411.907735645496 499.04885723308576L1411.907735645496 503.589703059313ZM1561.299390674868 505.45818507393284L1561.299390674868 505.45818507393284Q1544.8741301742566 505.45818507393284 1534.4019402783638 498.50569385674277Q1523.9297503824714 491.5532026395527 1518.910920785062 479.42979607957744Q1513.9138177227069 467.3063895196022 1513.9138177227069 452.1195415170526L1513.9138177227069 452.1195415170526Q1513.9138177227069 441.0172821046022 1516.6513611394753 431.24034133042863Q1519.3889045562441 421.46340055625507 1525.102983275372 414.119831708098Q1530.7953354594465 406.7545363248872 1539.790120971686 402.6047681296269Q1548.784906483926 398.47672646942027 1561.299390674868 398.47672646942027L1561.299390674868 398.47672646942027Q1573.8138748658102 398.47672646942027 1582.7434807728887 402.6047681296269Q1591.6513601449137 406.7545363248872 1597.3654388640416 414.119831708098Q1603.07951758317 421.46340055625507 1605.8170609999383 431.24034133042863Q1608.5546044167068 441.0172821046022 1608.5546044167068 452.1195415170526L1608.5546044167068 452.1195415170526Q1608.5546044167068 467.3063895196022 1603.6226809595128 479.42979607957744Q1598.6907575023188 491.5532026395527 1588.218567606426 498.50569385674277Q1577.7246511754797 505.45818507393284 1561.299390674868 505.45818507393284ZM1561.299390674868 500.1569105208254L1561.299390674868 500.1569105208254Q1568.664686058079 500.1569105208254 1573.9876871462402 497.4193671040568Q1579.2889616993475 494.6818236872882 1582.7434807728887 489.9888921156849Q1586.1762733113765 485.2959605440816 1588.218567606426 479.1038980537717Q1590.239135366422 472.93356209851544 1591.021290628356 466.04625048648654Q1591.8034458902898 459.1589388744576 1591.8034458902898 452.1195415170526L1591.8034458902898 452.1195415170526Q1591.8034458902898 442.58159262846993 1590.4781272520127 433.89097860698234Q1589.152808613736 425.22209112054844 1585.8721018206243 418.42168564873435Q1582.5913950275126 411.5995536418666 1576.6383244227936 407.68877733219716Q1570.6852538180747 403.77800102252775 1561.299390674868 403.77800102252775L1561.299390674868 403.77800102252775Q1551.9135275316612 403.77800102252775 1545.8952773217811 407.68877733219716Q1539.877027111901 411.5995536418666 1536.5963203187894 418.42168564873435Q1533.3156135256781 425.22209112054844 1531.9685683523471 433.89097860698234Q1530.6432497140704 442.58159262846993 1530.6432497140704 452.1195415170526L1530.6432497140704 452.1195415170526Q1530.6432497140704 459.1589388744576 1531.5123111162193 466.04625048648654Q1532.3596459833143 472.93356209851544 1534.3150341381493 479.1038980537717Q1536.2704222929838 485.2959605440816 1539.790120971686 489.9888921156849Q1543.3098196503888 494.6818236872882 1548.63282073855 497.4193671040568Q1553.9558218267111 500.1569105208254 1561.299390674868 500.1569105208254ZM1655.9401773688683 505.45818507393284L1655.9401773688683 505.45818507393284Q1649.0745922918932 505.45818507393284 1644.6858322110415 504.284952181032Q1640.2970721301904 503.1117192881312 1637.7333409938515 502.0253925354453Q1635.1478833224592 500.9390657827593 1633.2576747727853 500.9390657827593L1633.2576747727853 500.9390657827593Q1631.541278503542 500.9390657827593 1630.759123241608 502.11229867566016Q1629.976967979674 503.285531568561 1629.672796488922 504.676029811999L1629.672796488922 504.676029811999L1625.7620201792524 504.676029811999L1623.871811629579 473.5636316150733L1627.956400219678 473.5636316150733Q1628.738555481612 478.5607346774287 1630.846029381823 483.3405723892469Q1632.9535032820336 488.09868356601135 1636.4732019607359 491.8573741303048Q1639.9929006394386 495.61606469459815 1644.7727383512565 497.8756243401849Q1649.530849528021 500.1569105208254 1655.636005878116 500.1569105208254L1655.636005878116 500.1569105208254Q1662.523317490145 500.1569105208254 1667.2162490617484 497.4193671040568Q1671.9091806333518 494.6818236872882 1674.3208260243146 489.9888921156849Q1676.7541979503312 485.2959605440816 1676.7541979503312 479.8208737105444L1676.7541979503312 479.8208737105444Q1676.7541979503312 472.15140683658154 1672.1481725189428 467.37156912476337Q1667.5204205525006 462.61345794799894 1658.6125411804755 458.70268163832947L1658.6125411804755 458.70268163832947L1651.573143823071 455.72614633597Q1644.2078484398598 452.5975252882344 1638.1895982299798 448.75192858372617Q1632.1713480200997 444.9280584142716 1628.5647432011824 439.3008858353584Q1624.9798649173185 433.6737132564451 1624.9798649173185 425.3741768659245L1624.9798649173185 425.3741768659245Q1624.9798649173185 416.14039946809385 1629.2817188579552 410.2090553984286Q1633.5835727985914 404.25598479370956 1640.7750559013725 401.36635563156494Q1647.9665390041532 398.47672646942027 1656.7223326308022 398.47672646942027L1656.7223326308022 398.47672646942027Q1663.1533870067028 398.47672646942027 1666.8251714307812 399.56305322210625Q1670.49695585486 400.64937997479217 1672.6913358952856 401.75743326253183Q1674.8857159357112 402.8437600152178 1676.6021122049551 402.8437600152178L1676.6021122049551 402.8437600152178Q1678.0143369834468 402.8437600152178 1678.6226799649507 401.67052712231697Q1679.2527494815085 400.4972942294161 1679.4048352268846 398.9329837055484L1679.4048352268846 398.9329837055484L1683.0114400458024 398.9329837055484L1684.5757505696697 426.6343158990402L1680.5128885146246 426.6343158990402Q1679.5786475073146 420.20326152313936 1676.7541979503312 415.0540727154079Q1673.9297483933474 409.88315737262275 1669.171637216583 406.8414424651021Q1664.391799504765 403.77800102252775 1657.2003164019839 403.77800102252775L1657.2003164019839 403.77800102252775Q1649.2266780372693 403.77800102252775 1644.0557626944837 408.0798549631641Q1638.9065738867525 412.3817089038005 1638.9065738867525 421.46340055625507L1638.9065738867525 421.46340055625507Q1638.9065738867525 426.78640164441623 1641.0792273921243 430.3712799282799Q1643.2736074325503 433.9778847471972 1647.3364694875954 436.6285220237509Q1651.4210580776949 439.3008858353584 1656.896144911232 441.64735162116L1656.896144911232 441.64735162116L1664.239713759389 444.7759726688956Q1671.1270253714179 447.5786956908253 1677.232181721513 451.3373862551187Q1683.3156115365541 455.09607681941213 1687.1612082410625 460.8753351437014Q1690.985078410517 466.6763200030444 1690.985078410517 475.7362851204452L1690.985078410517 475.7362851204452Q1690.985078410517 482.62359673247414 1688.5734330195542 488.18558970622627Q1686.1400610935375 493.7258561449246 1681.534035662149 497.5714528494329Q1676.9062836957073 501.3953230188874 1670.410049714645 503.43761731393704Q1663.9355422686367 505.45818507393284 1655.9401773688683 505.45818507393284Z " fill="#f24f00" transform="matrix(0.5174498682540969,0,0,0.5174498682540969,0,77.25946777897985)"/></g></svg>